Coordinates
version=1
nRows=12
nColumns=24
inDegrees=yes

Units are S.I. units (second, meters, Newtons, ...)
Angles are in degrees.

endheader
time	pelvis_tilt	pelvis_list	pelvis_rotation	pelvis_tx	pelvis_ty	pelvis_tz	hip_flexion_r	hip_adduction_r	hip_rotation_r	knee_angle_r	ankle_angle_r	subtalar_angle_r	mtp_angle_r	hip_flexion_l	hip_adduction_l	hip_rotation_l	knee_angle_l	ankle_angle_l	subtalar_angle_l	mtp_angle_l	lumbar_extension	lumbar_bending	lumbar_rotation
      4.62000000	    -20.14906291	     11.65414364	     -6.95790849	     -0.87186483	     -0.03181231	     -0.24872628	     22.48644186	     -8.95244644	      4.82650575	    -60.75304321	    -39.98408513	    -15.82759206	      5.99552797	     38.91524489	     13.49682941	      1.16713869	    -20.44748826	     16.02558268	     10.55485394	    -72.27732752	     16.49528356	     -9.96785741	      9.42071881
      4.62500000	    -20.12700760	     11.70030269	     -7.02859589	     -0.86477605	     -0.03040290	     -0.24859231	     23.63484746	     -8.58660696	      5.28518585	    -62.07006985	    -37.86165039	    -17.19362218	      3.49979167	     37.98393647	     13.50801941	      0.85182913	    -19.76990249	     16.49003613	     11.19118750	    -72.54086337	     16.48274923	     -9.96438255	      9.33356299
      4.63000000	    -20.08695416	     11.72324563	     -7.10192853	     -0.85764444	     -0.02894805	     -0.24839002	     24.72847162	     -8.17963719	      5.75238651	    -63.25773429	    -35.73092071	    -18.35337682	      1.05963013	     37.00023143	     13.50277788	      0.58044882	    -19.04577698	     16.91423654	     11.82883258	    -72.77671210	     16.46014177	     -9.94740751	      9.24208888
      4.63500000	    -20.02693086	     11.70770181	     -7.14843013	     -0.85052308	     -0.02748531	     -0.24825866	     25.76496969	     -7.75500013	      6.15358536	    -64.33999421	    -33.56265647	    -19.34748470	     -1.49679665	     35.98390437	     13.50409857	      0.38293953	    -18.30900002	     17.26865501	     12.34809290	    -73.01549695	     16.40006621	     -9.89970345	      9.12732190
      4.64000000	    -19.95499343	     11.66195779	     -7.18241909	     -0.84340972	     -0.02602885	     -0.24811794	     26.75762420	     -7.31002225	      6.52186751	    -65.30505196	    -31.51430946	    -20.20212094	     -3.79694070	     34.93913149	     13.49780448	      0.26532459	    -17.55265378	     17.57829675	     12.80115669	    -73.21140362	     16.32232041	     -9.83338740	      8.99592927
      4.64500000	    -19.90728357	     11.63081894	     -7.23900843	     -0.83623395	     -0.02458278	     -0.24803341	     27.73486700	     -6.88040831	      6.97021956	    -66.05958123	    -30.16933321	    -21.21531840	     -3.97203269	     33.87522911	     13.51589554	      0.25295822	    -16.69895213	     17.73825856	     13.07159223	    -73.22788204	     16.29015066	     -9.75965379	      8.90101778
      4.65000000	    -19.81675710	     11.47967134	     -7.13778917	     -0.82906492	     -0.02314607	     -0.24798980	     28.62569434	     -6.42398230	      7.06977141	    -66.88850340	    -27.82599971	    -21.53068833	     -7.82348790	     32.76037411	     13.51062839	      0.44572603	    -15.90886312	     17.98000627	     13.37967940	    -73.52819039	     16.15842097	     -9.64362820	      8.60290712
      4.65500000	    -19.75835971	     11.37097885	     -7.19772532	     -0.82192209	     -0.02175758	     -0.24783299	     29.54467860	     -5.92954146	      7.45973289	    -67.47086919	    -26.63066651	    -22.19378647	     -7.83767504	     31.68399427	     13.45724968	      0.45361877	    -15.06787959	     18.11669169	     13.61988159	    -73.52245188	     16.10535477	     -9.50320949	      8.51371765
      4.66000000	    -19.69320890	     11.17962246	     -7.06433663	     -0.81475402	     -0.02040989	     -0.24785329	     30.40989812	     -5.48683775	      7.48292085	    -68.08179039	    -24.70437764	    -22.39949418	    -10.71832134	     30.57793491	     13.44083194	      0.78464496	    -14.24466206	     18.20394621	     13.73772706	    -73.58652453	     15.99359851	     -9.35246917	      8.17110521
      4.66500000	    -19.59289456	     10.99906362	     -7.05579251	     -0.80759247	     -0.01906515	     -0.24781268	     31.21417177	     -5.01668207	      7.71387978	    -68.49513702	    -23.52133656	    -22.70499675	    -10.58197799	     29.43617555	     13.38550367	      1.02102813	    -13.39064839	     18.26934853	     13.77212881	    -73.59378502	     15.87163754	     -9.16936591	      8.00031093
      4.67000000	    -19.52803242	     10.74195121	     -6.93657528	     -0.80046342	     -0.01778079	     -0.24789616	     32.00073771	     -4.54781296	      7.77502778	    -68.81551501	    -22.32568393	    -22.88559961	    -10.46865831	     28.32589722	     13.30922122	      1.47205082	    -12.55932651	     18.28919774	     13.69833926	    -73.60245718	     15.75255869	     -8.94107766	      7.69778055
      4.67500000	    -19.47209537	     10.45725045	     -6.79746672	     -0.79339873	     -0.01653052	     -0.24798314	     32.77696220	     -4.07540518	      7.78525709	    -69.05229738	    -21.14033132	    -22.97358090	    -10.31454670	     27.22976046	     13.20731197	      2.00671103	    -11.73108300	     18.24988746	     13.54845605	    -73.60501592	     15.62738843	     -8.69656404	      7.38628625
